<svg width="43" height="44" viewBox="0 0 43 44" fill="none" xmlns="http://www.w3.org/2000/svg">
<circle cx="21.5" cy="22" r="21" stroke="#D8D8D8" stroke-opacity="0.53"/>
<g clip-path="url(#clip0_1030_5059)">
<path d="M13.8063 17.225H29.3938C29.6076 17.225 29.8127 17.3099 29.9639 17.4611C30.1151 17.6123 30.2 17.8174 30.2 18.0312C30.2 18.2451 30.1151 18.4502 29.9639 18.6014C29.8127 18.7526 29.6076 18.8375 29.3938 18.8375H13.8063C13.5924 18.8375 13.3873 18.7526 13.2361 18.6014C13.0849 18.4502 13 18.2451 13 18.0312C13 17.8174 13.0849 17.6123 13.2361 17.4611C13.3873 17.3099 13.5924 17.225 13.8063 17.225ZM16.225 22.3312C16.225 22.1174 16.3099 21.9123 16.4611 21.7611C16.6123 21.6099 16.8174 21.525 17.0312 21.525H26.1688C26.3826 21.525 26.5877 21.6099 26.7389 21.7611C26.8901 21.9123 26.975 22.1174 26.975 22.3312C26.975 22.5451 26.8901 22.7502 26.7389 22.9014C26.5877 23.0526 26.3826 23.1375 26.1688 23.1375H17.0312C16.8174 23.1375 16.6123 23.0526 16.4611 22.9014C16.3099 22.7502 16.225 22.5451 16.225 22.3312ZM19.45 26.6312C19.45 26.4174 19.5349 26.2123 19.6861 26.0611C19.8373 25.9099 20.0424 25.825 20.2563 25.825H22.9438C23.1576 25.825 23.3627 25.9099 23.5139 26.0611C23.6651 26.2123 23.75 26.4174 23.75 26.6312C23.75 26.8451 23.6651 27.0502 23.5139 27.2014C23.3627 27.3526 23.1576 27.4375 22.9438 27.4375H20.2563C20.0424 27.4375 19.8373 27.3526 19.6861 27.2014C19.5349 27.0502 19.45 26.8451 19.45 26.6312Z" fill="black"/>
</g>
<defs>
<clipPath id="clip0_1030_5059">
<rect width="17.2" height="17.2" fill="white" transform="translate(13 14)"/>
</clipPath>
</defs>
</svg>
