<svg width="47" height="48" viewBox="0 0 47 48" fill="none" xmlns="http://www.w3.org/2000/svg">
<path d="M30.8767 30.4412V22.1912C30.8767 22.0405 30.8426 21.8919 30.7771 21.7571C30.7116 21.6223 30.6164 21.5051 30.4992 21.4147L23.8924 16.3191C23.729 16.1931 23.5303 16.125 23.3261 16.125C23.1218 16.125 22.9231 16.1931 22.7598 16.3191L16.1529 21.4147C16.0357 21.5051 15.9406 21.6223 15.875 21.7571C15.8095 21.8919 15.7754 22.0405 15.7754 22.1912V30.4412C15.7754 30.6986 15.8748 30.9455 16.0518 31.1275C16.2288 31.3095 16.4689 31.4118 16.7192 31.4118H20.4946C20.7449 31.4118 20.985 31.3095 21.162 31.1275C21.339 30.9455 21.4384 30.6986 21.4384 30.4412V27.5294C21.4384 27.272 21.5378 27.0251 21.7148 26.8431C21.8918 26.6611 22.1319 26.5588 22.3822 26.5588H24.2699C24.5202 26.5588 24.7603 26.6611 24.9373 26.8431C25.1143 27.0251 25.2137 27.272 25.2137 27.5294V30.4412C25.2137 30.6986 25.3132 30.9455 25.4902 31.1275C25.6672 31.3095 25.9072 31.4118 26.1576 31.4118H29.9329C30.1832 31.4118 30.4233 31.3095 30.6003 31.1275C30.7773 30.9455 30.8767 30.6986 30.8767 30.4412Z" fill="#262626"/>
</svg>
