<svg width="8" height="8" viewBox="0 0 8 8" fill="none" xmlns="http://www.w3.org/2000/svg">
<g clip-path="url(#clip0_78_250)">
<path fill-rule="evenodd" clip-rule="evenodd" d="M4 0.666666C4.79565 0.666666 5.55871 0.982736 6.12132 1.54535C6.68393 2.10795 7 2.87102 7 3.66667C7 4.69133 6.44133 5.53 5.85267 6.13167C5.55851 6.42896 5.23759 6.69855 4.894 6.937L4.752 7.03367L4.68533 7.078L4.55967 7.158L4.44767 7.22633L4.309 7.307C4.21484 7.3606 4.10835 7.38878 4 7.38878C3.89165 7.38878 3.78516 7.3606 3.691 7.307L3.55233 7.22633L3.379 7.11967L3.315 7.078L3.17833 6.987C2.80766 6.73611 2.46236 6.44964 2.14733 6.13167C1.55867 5.52967 1 4.69133 1 3.66667C1 2.87102 1.31607 2.10795 1.87868 1.54535C2.44129 0.982736 3.20435 0.666666 4 0.666666ZM4 1.33333C3.38116 1.33333 2.78767 1.57917 2.35008 2.01675C1.9125 2.45433 1.66667 3.04783 1.66667 3.66667C1.66667 4.44067 2.09067 5.12 2.62367 5.66533C2.85287 5.8973 3.10058 6.11022 3.36433 6.302L3.517 6.41067C3.56633 6.445 3.61367 6.477 3.65933 6.50667L3.78933 6.59L3.90367 6.65967L4 6.716L4.15167 6.62633L4.274 6.54967C4.339 6.50833 4.409 6.462 4.483 6.41067L4.63567 6.302C4.89942 6.11022 5.14713 5.8973 5.37633 5.66533C5.90933 5.12033 6.33333 4.44067 6.33333 3.66667C6.33333 3.04783 6.0875 2.45433 5.64992 2.01675C5.21233 1.57917 4.61884 1.33333 4 1.33333ZM4 2.33333C4.35362 2.33333 4.69276 2.47381 4.94281 2.72386C5.19286 2.97391 5.33333 3.31304 5.33333 3.66667C5.33333 4.02029 5.19286 4.35943 4.94281 4.60947C4.69276 4.85952 4.35362 5 4 5C3.64638 5 3.30724 4.85952 3.05719 4.60947C2.80714 4.35943 2.66667 4.02029 2.66667 3.66667C2.66667 3.31304 2.80714 2.97391 3.05719 2.72386C3.30724 2.47381 3.64638 2.33333 4 2.33333ZM4 3C3.82319 3 3.65362 3.07024 3.5286 3.19526C3.40357 3.32029 3.33333 3.48985 3.33333 3.66667C3.33333 3.84348 3.40357 4.01305 3.5286 4.13807C3.65362 4.26309 3.82319 4.33333 4 4.33333C4.17681 4.33333 4.34638 4.26309 4.4714 4.13807C4.59643 4.01305 4.66667 3.84348 4.66667 3.66667C4.66667 3.48985 4.59643 3.32029 4.4714 3.19526C4.34638 3.07024 4.17681 3 4 3Z" fill="#0E0E0E"/>
</g>
<defs>
<clipPath id="clip0_78_250">
<rect width="8" height="8" fill="white"/>
</clipPath>
</defs>
</svg>
