<svg width="48" height="48" viewBox="0 0 48 48" fill="none" xmlns="http://www.w3.org/2000/svg">
<path fill-rule="evenodd" clip-rule="evenodd" d="M33.9493 31.1376C33.8614 30.7152 33.4477 30.4441 33.0252 30.532C32.6028 30.6199 32.3316 31.0337 32.4196 31.456C32.4703 31.6994 32.4099 31.9487 32.2542 32.1404C32.1639 32.2514 31.9627 32.4375 31.6292 32.4375H16.3708C16.0373 32.4375 15.8361 32.2513 15.7458 32.1404C15.59 31.9488 15.5297 31.6994 15.5804 31.456C16.3912 27.5617 19.8261 24.717 23.7929 24.621C23.8616 24.6237 23.9306 24.625 24 24.625C24.0696 24.625 24.1389 24.6236 24.2079 24.621C27.0021 24.688 29.5848 26.1033 31.1488 28.4358C31.3891 28.7942 31.8743 28.8899 32.2328 28.6496C32.5912 28.4094 32.6869 27.9241 32.4466 27.5657C31.1647 25.6538 29.3032 24.2636 27.1808 23.565C28.4742 22.5952 29.3125 21.0499 29.3125 19.3125C29.3125 16.3832 26.9293 14 24 14C21.0707 14 18.6875 16.3832 18.6875 19.3125C18.6875 21.0509 19.5269 22.597 20.8216 23.5668C19.6353 23.9574 18.5223 24.5651 17.548 25.3664C15.7616 26.8358 14.5196 28.8854 14.0507 31.1376C13.9037 31.8433 14.0798 32.5682 14.5336 33.1262C14.9852 33.6815 15.6549 34 16.3708 34H31.6292C32.3451 34 33.0148 33.6815 33.4663 33.1262C33.9202 32.5682 34.0963 31.8433 33.9493 31.1376ZM20.25 19.3125C20.25 17.2447 21.9322 15.5625 24 15.5625C26.0678 15.5625 27.75 17.2447 27.75 19.3125C27.75 21.3166 26.1697 22.9585 24.1898 23.0577C24.1266 23.0565 24.0634 23.056 24 23.056C23.937 23.056 23.8739 23.0566 23.8109 23.0578C21.8307 22.959 20.25 21.3169 20.25 19.3125Z" fill="#262626"/>
</svg>
