<svg width="8" height="8" viewBox="0 0 8 8" fill="none" xmlns="http://www.w3.org/2000/svg">
<path d="M3.53834 1.30997C3.70914 0.899319 4.29086 0.899319 4.46166 1.30996L4.94073 2.46179C5.01273 2.63491 5.17554 2.75319 5.36243 2.76818L6.60593 2.86787C7.04925 2.90341 7.22902 3.45666 6.89125 3.746L5.94384 4.55755C5.80144 4.67953 5.73926 4.87092 5.78276 5.05329L6.07221 6.26673C6.1754 6.69934 5.70478 7.04127 5.32523 6.80945L4.26063 6.15919C4.10062 6.06146 3.89938 6.06146 3.73937 6.15919L2.67477 6.80945C2.29522 7.04127 1.82459 6.69934 1.92779 6.26673L2.21724 5.0533C2.26074 4.87092 2.19856 4.67953 2.05616 4.55755L1.10875 3.746C0.770984 3.45666 0.950746 2.90341 1.39407 2.86787L2.63756 2.76818C2.82446 2.75319 2.98727 2.63491 3.05927 2.46179L3.53834 1.30997Z" stroke="#0E0E0E" stroke-width="0.8"/>
</svg>
