<svg width="49" height="48" viewBox="0 0 49 48" fill="none" xmlns="http://www.w3.org/2000/svg">
<path d="M16.2897 19.5504C16.6741 19.166 17.1956 18.95 17.7393 18.95H31.7393C32.283 18.95 32.8044 19.166 33.1888 19.5504C33.5733 19.9349 33.7893 20.4563 33.7893 21V30C33.7893 30.5437 33.5733 31.0651 33.1888 31.4496C32.8044 31.834 32.283 32.05 31.7393 32.05H17.7393C17.1956 32.05 16.6741 31.834 16.2897 31.4496C15.9052 31.0651 15.6893 30.5437 15.6893 30V21C15.6893 20.4563 15.9052 19.9349 16.2897 19.5504ZM29.2393 23.55C28.7221 23.55 28.2261 23.7554 27.8604 24.1211C27.4947 24.4868 27.2893 24.9828 27.2893 25.5C27.2893 26.0172 27.4947 26.5132 27.8604 26.8789C28.2261 27.2446 28.7221 27.45 29.2393 27.45C29.7564 27.45 30.2524 27.2446 30.6181 26.8789C30.9838 26.5132 31.1893 26.0172 31.1893 25.5C31.1893 24.9828 30.9838 24.4868 30.6181 24.1211C30.2524 23.7554 29.7564 23.55 29.2393 23.55Z" stroke="#262626" stroke-width="1.4"/>
<path d="M29.3991 15.7468L29.3991 15.7468L29.4045 15.7454C29.597 15.6941 29.7986 15.6877 29.9939 15.7267C30.1892 15.7658 30.373 15.8491 30.531 15.9704C30.6505 16.0622 30.7528 16.1738 30.8337 16.3H27.2548L29.3991 15.7468Z" stroke="#262626" stroke-width="1.4"/>
</svg>
